<?xml version="1.0" standalone="no"?>
<!DOCTYPE svg PUBLIC "-//W3C//DTD SVG 20010904//EN"
 "http://www.w3.org/TR/2001/REC-SVG-20010904/DTD/svg10.dtd">
<svg version="1.0" xmlns="http://www.w3.org/2000/svg"
 width="1152.000000pt" height="1152.000000pt" viewBox="0 0 1152.000000 1152.000000"
 preserveAspectRatio="xMidYMid meet">
<metadata>
Created by potrace 1.14, written by Peter Selinger 2001-2017
</metadata>
<g transform="translate(0.000000,1152.000000) scale(0.100000,-0.100000)"
fill="#000000" stroke="none">
<path d="M5756 11033 c-2 -2 -27 -5 -57 -8 -63 -5 -87 -10 -189 -31 -78 -17
-125 -33 -225 -79 -33 -15 -62 -27 -64 -26 -2 2 -7 -1 -10 -6 -9 -13 -69 -53
-79 -53 -5 0 -17 -9 -27 -20 -10 -11 -22 -20 -28 -20 -5 0 -26 -13 -47 -30
-21 -16 -41 -30 -44 -30 -17 0 -196 -173 -252 -245 -21 -27 -47 -59 -56 -70
-42 -51 -164 -231 -203 -300 -16 -27 -31 -52 -34 -55 -4 -3 -15 -24 -26 -47
-11 -24 -23 -43 -27 -43 -5 0 -8 -5 -8 -12 0 -6 -10 -25 -23 -42 -12 -17 -28
-42 -34 -56 -6 -14 -32 -59 -59 -100 -27 -41 -54 -84 -60 -95 -152 -279 -193
-361 -229 -455 -51 -133 -69 -192 -90 -290 -19 -90 -26 -125 -32 -175 -8 -72
-8 -247 1 -295 4 -19 9 -51 12 -70 6 -43 12 -74 14 -77 3 -4 3 -3 20 -78 17
-74 16 -72 41 -134 12 -30 9 -33 -21 -16 -91 51 -451 226 -477 231 -18 4 -33
11 -33 16 0 5 -4 7 -8 4 -5 -3 -22 2 -38 10 -16 9 -30 15 -32 14 -4 -3 -67 12
-77 18 -5 4 -14 8 -20 9 -29 8 -99 23 -175 37 -47 10 -103 22 -125 27 -22 6
-58 12 -80 14 -98 11 -135 18 -135 28 0 5 -7 4 -15 -3 -8 -7 -15 -8 -15 -3 0
5 -10 9 -22 10 -13 1 -43 5 -68 9 -85 13 -291 19 -336 10 -12 -2 -37 -7 -56
-10 -19 -3 -95 -21 -169 -41 -74 -19 -144 -37 -157 -40 -60 -14 -217 -102
-272 -152 -14 -13 -46 -40 -71 -60 -25 -21 -61 -57 -80 -81 -19 -25 -44 -54
-55 -67 -12 -12 -43 -51 -69 -86 -26 -35 -50 -66 -54 -69 -3 -3 -19 -24 -35
-48 -16 -23 -39 -53 -52 -67 -13 -14 -24 -29 -24 -33 -1 -7 -45 -62 -110 -137
-56 -65 -320 -315 -332 -315 -4 0 -8 -4 -8 -9 0 -5 -13 -23 -30 -39 -16 -17
-30 -36 -30 -42 0 -7 -7 -10 -16 -6 -9 3 -12 2 -9 -4 5 -8 -38 -70 -125 -177
-6 -7 -10 -19 -10 -28 0 -8 -4 -15 -10 -15 -5 0 -10 -6 -10 -14 0 -7 -15 -46
-34 -87 -31 -69 -48 -111 -47 -116 0 -2 -8 -23 -19 -48 -11 -25 -18 -45 -15
-45 2 0 0 -14 -5 -32 -21 -70 -32 -193 -31 -328 1 -116 2 -125 17 -215 9 -56
9 -54 16 -75 3 -8 11 -35 17 -60 24 -92 104 -291 141 -352 17 -27 30 -52 30
-57 0 -5 4 -11 8 -13 4 -1 38 -47 75 -100 36 -54 77 -109 89 -124 87 -103 230
-248 353 -359 43 -38 85 -77 94 -85 9 -9 50 -45 91 -80 41 -36 77 -67 80 -70
3 -3 36 -32 75 -65 38 -33 83 -72 100 -87 154 -136 341 -264 491 -335 52 -25
101 -46 107 -47 7 -1 29 -10 51 -19 21 -9 44 -17 50 -17 19 -1 128 -39 142
-51 14 -12 4 -42 -21 -64 -15 -13 -75 -91 -75 -98 0 -10 -59 -94 -76 -108 -27
-22 -99 -129 -144 -214 -24 -44 -47 -83 -52 -86 -5 -3 -9 -8 -8 -10 1 -4 -16
-48 -55 -136 -14 -30 -25 -60 -25 -65 0 -6 -7 -24 -15 -41 -39 -86 -129 -378
-151 -492 -2 -11 -12 -53 -22 -93 -19 -75 -22 -199 -7 -272 4 -19 9 -44 10
-55 2 -11 4 -20 5 -20 1 0 3 -7 5 -15 1 -8 8 -35 15 -60 7 -25 13 -49 15 -55
13 -58 153 -313 208 -380 4 -5 41 -54 82 -109 41 -54 84 -110 97 -125 66 -74
288 -420 288 -448 0 -2 17 -30 37 -61 81 -125 149 -227 158 -238 6 -6 26 -31
45 -55 43 -54 210 -219 221 -219 4 0 20 -11 36 -24 31 -25 82 -45 140 -52 58
-8 548 -8 560 -1 5 4 13 4 16 1 8 -8 414 -1 517 9 39 4 156 19 170 22 74 16
121 38 257 122 41 25 78 41 84 37 7 -4 9 -3 6 3 -3 5 28 34 69 64 41 30 84 61
94 69 10 8 96 67 190 130 95 63 178 120 184 125 6 6 27 21 47 35 52 36 107 80
143 115 17 17 53 48 80 70 26 22 78 71 115 109 163 173 158 168 170 154 46
-56 70 -90 128 -185 36 -59 69 -110 72 -113 4 -3 17 -18 29 -33 112 -146 343
-356 486 -441 91 -54 268 -121 394 -149 77 -18 260 -13 321 8 7 3 41 8 75 11
33 3 65 8 69 11 5 3 30 7 55 9 26 3 65 7 87 9 22 3 90 8 150 11 61 3 115 10
122 16 7 5 13 5 17 0 7 -11 126 -16 356 -16 150 0 207 4 280 18 14 3 41 7 60
10 19 3 50 10 68 15 18 5 34 10 37 11 3 0 10 2 17 4 7 2 36 10 63 17 28 7 66
19 85 28 19 8 37 15 41 15 16 2 139 70 139 77 0 5 6 9 13 9 8 0 23 8 34 17 11
10 41 35 66 56 48 40 102 92 154 150 53 59 191 266 198 297 1 3 13 30 26 60
42 91 60 135 62 150 1 8 8 29 14 45 17 42 51 190 58 250 14 126 17 170 16 310
0 83 -2 191 -5 240 -3 50 -8 124 -11 165 -2 41 -4 75 -5 75 0 0 -3 34 -5 75
-8 129 -15 223 -20 275 -3 28 -7 77 -10 110 -3 33 -7 74 -10 90 -3 17 -6 37
-6 45 -1 8 -6 33 -11 55 -6 22 -12 49 -13 60 -1 11 -6 38 -10 60 -11 49 -10
47 -18 65 -3 8 -13 40 -22 70 -16 55 -25 73 -102 191 -24 35 -43 69 -43 75 0
14 136 80 205 98 6 1 24 9 40 16 17 7 46 19 65 27 78 32 204 99 297 159 29 19
55 34 58 34 7 0 146 93 242 162 44 32 86 58 92 58 6 0 11 3 11 8 0 4 9 12 19
17 30 16 283 191 316 220 33 28 53 44 117 95 52 42 278 269 278 281 0 4 6 14
13 21 7 7 26 31 42 53 17 22 32 42 35 45 3 3 11 16 19 30 8 14 30 52 49 85 51
88 121 230 126 255 1 3 5 11 9 18 5 6 6 12 2 12 -3 0 1 16 10 36 8 20 17 57
20 82 3 26 8 59 11 74 16 83 21 225 11 333 -15 160 -19 183 -38 250 -23 78
-113 256 -170 337 -11 14 -19 29 -19 32 0 4 -10 17 -22 30 -13 13 -34 38 -48
56 -14 18 -31 38 -37 45 -7 8 -13 16 -13 18 0 3 -15 20 -33 39 -18 18 -59 64
-92 102 -33 38 -64 74 -70 80 -38 42 -145 198 -145 210 0 3 -32 56 -71 118
-39 62 -77 122 -83 133 -6 11 -14 22 -17 25 -3 3 -19 25 -34 50 -16 25 -35 52
-44 60 -9 8 -29 33 -46 55 -40 55 -185 195 -201 195 -3 0 -23 13 -43 29 -42
33 -154 91 -176 91 -8 0 -15 4 -15 9 0 7 -51 23 -63 20 -1 -1 -20 6 -42 15
-39 15 -115 37 -145 42 -8 1 -24 4 -35 7 -40 9 -134 23 -230 34 -102 11 -377
4 -454 -12 -13 -2 -49 -7 -80 -11 -54 -6 -67 -8 -121 -21 -14 -3 -36 -6 -50
-7 -14 -2 -36 -5 -50 -9 -14 -3 -38 -8 -55 -11 -16 -2 -37 -6 -45 -9 -8 -3
-31 -8 -50 -11 -19 -3 -64 -12 -100 -21 -87 -22 -82 -21 -105 -29 -11 -5 -37
-14 -57 -22 -21 -8 -38 -11 -38 -7 0 3 -9 -2 -20 -12 -11 -10 -20 -16 -20 -12
0 3 -32 -10 -71 -29 -40 -19 -85 -38 -101 -41 -15 -3 -31 -10 -34 -14 -3 -5
-9 -7 -14 -4 -4 2 3 34 16 69 12 35 20 67 17 70 -4 3 -2 6 4 6 5 0 10 6 10 13
0 6 10 53 23 102 12 50 24 99 26 110 11 55 16 83 19 115 2 19 4 35 5 35 3 0 9
42 15 100 22 216 22 637 1 725 -3 14 -8 37 -11 53 -3 15 -7 38 -10 52 -3 14
-7 36 -9 49 -2 13 -9 34 -16 45 -6 12 -8 21 -6 21 3 0 1 12 -5 28 -6 15 -12
34 -14 42 -5 22 -51 143 -66 171 -6 13 -17 33 -22 44 -33 64 -56 99 -116 180
-49 65 -159 178 -205 210 -15 11 -33 25 -40 30 -22 19 -121 83 -166 106 -25
13 -46 27 -48 32 -2 4 -8 7 -13 7 -20 0 -139 62 -139 73 0 6 -3 8 -6 4 -7 -7
-187 81 -192 94 -2 5 -8 9 -14 9 -12 0 -102 61 -106 72 -2 4 -9 8 -16 8 -7 0
-21 9 -31 20 -10 11 -22 20 -27 20 -4 0 -16 8 -26 18 -36 34 -73 62 -134 104
-35 23 -64 46 -66 50 -2 5 -8 8 -14 8 -5 0 -29 14 -53 30 -24 17 -46 30 -49
30 -3 0 -27 13 -53 28 -53 31 -167 81 -198 87 -11 2 -21 4 -22 5 -2 2 -7 4
-13 5 -5 1 -11 3 -12 5 -3 2 -14 4 -73 14 -81 14 -340 28 -349 19z"/>
</g>
</svg>
